<svg width="21" height="21" viewBox="0 0 21 21" fill="none" xmlns="http://www.w3.org/2000/svg">
<path d="M15.1794 13.8679C16.3897 12.2162 16.9318 10.1685 16.6972 8.13431C16.4626 6.10013 15.4686 4.22954 13.9141 2.89678C12.3595 1.56402 10.359 0.867374 8.3129 0.946216C6.26676 1.02506 4.32583 1.87357 2.87844 3.322C1.43104 4.77044 0.583918 6.71197 0.506541 8.75816C0.429163 10.8044 1.12724 12.8043 2.46111 14.3579C3.79499 15.9115 5.66629 16.9042 7.70063 17.1374C9.73497 17.3705 11.7823 16.8269 13.4331 15.6154H13.4319C13.4685 15.6654 13.5094 15.7133 13.5544 15.7591L18.3669 20.5716C18.6012 20.8062 18.9192 20.938 19.2508 20.9381C19.5824 20.9382 19.9004 20.8066 20.135 20.5722C20.3695 20.3379 20.5014 20.0199 20.5015 19.6883C20.5016 19.3567 20.37 19.0387 20.1356 18.8041L15.3231 13.9916C15.2784 13.9464 15.2304 13.9058 15.1794 13.8679ZM15.5019 9.06287C15.5019 9.96571 15.324 10.8597 14.9785 11.6938C14.633 12.5279 14.1266 13.2858 13.4882 13.9242C12.8498 14.5626 12.0919 15.069 11.2578 15.4145C10.4237 15.76 9.52969 15.9379 8.62685 15.9379C7.72402 15.9379 6.83002 15.76 5.99591 15.4145C5.16179 15.069 4.4039 14.5626 3.7655 13.9242C3.12709 13.2858 2.62068 12.5279 2.27518 11.6938C1.92968 10.8597 1.75185 9.96571 1.75185 9.06287C1.75185 7.23951 2.47618 5.49082 3.7655 4.20151C5.05481 2.9122 6.80349 2.18787 8.62685 2.18787C10.4502 2.18787 12.1989 2.9122 13.4882 4.20151C14.7775 5.49082 15.5019 7.23951 15.5019 9.06287Z" fill="white"/>
</svg>
