<svg width="23" height="21" viewBox="0 0 23 21" fill="none" xmlns="http://www.w3.org/2000/svg">
<path d="M12.8122 0.690217C12.5309 0.409011 12.1494 0.251038 11.7517 0.251038C11.3539 0.251038 10.9725 0.409011 10.6912 0.690217L0.72068 10.6592C0.650948 10.7289 0.595634 10.8117 0.557895 10.9028C0.520156 10.994 0.500732 11.0916 0.500732 11.1902C0.500732 11.2888 0.520156 11.3865 0.557895 11.4776C0.595634 11.5687 0.650948 11.6515 0.72068 11.7212C0.86151 11.862 1.05252 11.9412 1.25168 11.9412C1.3503 11.9412 1.44795 11.9217 1.53905 11.884C1.63016 11.8463 1.71295 11.7909 1.78268 11.7212L2.75168 10.7507V18.6902C2.75168 19.287 2.98873 19.8593 3.41069 20.2812C3.83265 20.7032 4.40494 20.9402 5.00168 20.9402H18.5017C19.0984 20.9402 19.6707 20.7032 20.0927 20.2812C20.5146 19.8593 20.7517 19.287 20.7517 18.6902V10.7507L21.7207 11.7212C21.8615 11.862 22.0525 11.9412 22.2517 11.9412C22.4508 11.9412 22.6418 11.862 22.7827 11.7212C22.9235 11.5804 23.0026 11.3894 23.0026 11.1902C23.0026 10.9911 22.9235 10.8 22.7827 10.6592L19.2517 7.12972V2.19022C19.2517 1.9913 19.1727 1.80054 19.032 1.65989C18.8914 1.51924 18.7006 1.44022 18.5017 1.44022H17.0017C16.8028 1.44022 16.612 1.51924 16.4713 1.65989C16.3307 1.80054 16.2517 1.9913 16.2517 2.19022V4.12972L12.8122 0.690217ZM19.2517 9.25072V18.6902C19.2517 18.8891 19.1727 19.0799 19.032 19.2205C18.8914 19.3612 18.7006 19.4402 18.5017 19.4402H5.00168C4.80277 19.4402 4.612 19.3612 4.47135 19.2205C4.3307 19.0799 4.25168 18.8891 4.25168 18.6902V9.25072L11.7517 1.75072L19.2517 9.25072Z" fill="white"/>
</svg>
