<svg width="21" height="20" viewBox="0 0 21 20" fill="none" xmlns="http://www.w3.org/2000/svg">
<path d="M10.5009 4.41902L9.60463 3.48549C7.50081 1.29417 3.6432 2.05036 2.25065 4.80535C1.59688 6.10115 1.44938 7.97201 2.64317 10.3597C3.7932 12.6587 6.18577 15.4124 10.5009 18.4118C14.816 15.4124 17.2074 12.6587 18.3586 10.3597C19.5524 7.97074 19.4062 6.10115 18.7512 4.80535C17.3586 2.05036 13.501 1.2929 11.3972 3.48422L10.5009 4.41902ZM10.5009 19.9382C-8.66593 7.10435 4.59948 -2.91242 10.2809 2.38603C10.3559 2.45612 10.4292 2.52832 10.5009 2.60263C10.5713 2.52785 10.6447 2.45601 10.7209 2.38729C16.4011 -2.91495 29.6677 7.10308 10.5009 19.9382Z" fill="white"/>
</svg>
