<svg width="15" height="16" viewBox="0 0 15 16" fill="none" xmlns="http://www.w3.org/2000/svg">
<path d="M11.5007 0.938171C11.7659 0.938171 12.0202 1.0436 12.2078 1.23114C12.3953 1.41868 12.5007 1.67295 12.5007 1.93817V14.9382H14.0007C14.1333 14.9382 14.2605 14.9909 14.3542 15.0847C14.448 15.1784 14.5007 15.3056 14.5007 15.4382C14.5007 15.5708 14.448 15.6979 14.3542 15.7917C14.2605 15.8855 14.1333 15.9382 14.0007 15.9382H1.00073C0.868124 15.9382 0.740985 15.8855 0.647217 15.7917C0.553449 15.6979 0.500732 15.5708 0.500732 15.4382C0.500732 15.3056 0.553449 15.1784 0.647217 15.0847C0.740985 14.9909 0.868124 14.9382 1.00073 14.9382H2.50073V1.93817C2.50073 1.67295 2.60616 1.41868 2.7937 1.23114C2.98124 1.0436 3.23552 0.938171 3.50073 0.938171H11.5007ZM3.50073 14.9382H11.5007V1.93817H3.50073V14.9382ZM9.50073 7.93817C9.76595 7.93817 10.0202 8.0436 10.2078 8.23114C10.3953 8.41868 10.5007 8.67296 10.5007 8.93817C10.5007 9.20339 10.3953 9.45767 10.2078 9.6452C10.0202 9.83274 9.76595 9.93817 9.50073 9.93817C9.23552 9.93817 8.98124 9.83274 8.7937 9.6452C8.60616 9.45767 8.50073 9.20339 8.50073 8.93817C8.50073 8.67296 8.60616 8.41868 8.7937 8.23114C8.98124 8.0436 9.23552 7.93817 9.50073 7.93817Z" fill="white"/>
</svg>
